<?xml version="1.0" encoding="utf-8"?>
<!-- Generator: Adobe Illustrator 16.0.0, SVG Export Plug-In . SVG Version: 6.00 Build 0)  -->
<!DOCTYPE svg PUBLIC "-//W3C//DTD SVG 1.1//EN" "http://www.w3.org/Graphics/SVG/1.1/DTD/svg11.dtd">
<svg version="1.1" id="图层_1" xmlns="http://www.w3.org/2000/svg" xmlns:xlink="http://www.w3.org/1999/xlink" x="0px" y="0px"
	 width="35.563px" height="41.906px" viewBox="0 0 35.563 41.906" enable-background="new 0 0 35.563 41.906" xml:space="preserve">
<path fill="#272635" d="M34.369,79.789"/>
<g>
	<g>
		<path fill="#EFF3F2" d="M18.214,41.406C12.1,41.463,0.743,32.773,0.663,24.047L0.506,6.782l1.722-0.016
			c0.063,0,3.885-0.099,7.884-1.729c4.062-1.693,6.657-3.564,6.721-3.565l1.013-0.838l1.026,0.756c0,0,2.692,1.886,6.783,3.441
			c3.965,1.557,7.468,1.588,7.532,1.588l1.721-0.016l0.156,17.263C35.144,32.459,24.267,41.35,18.214,41.406L18.214,41.406
			L18.214,41.406L18.214,41.406L18.214,41.406z"/>
		<path fill="#C9CACA" d="M18.154,41.906c-6.39,0-17.91-8.998-17.991-17.854L0.001,6.288l2.222-0.021
			c0.037,0,3.796-0.101,7.699-1.692c3.317-1.383,5.626-2.875,6.386-3.366c0.106-0.069,0.183-0.118,0.244-0.153l1.273-1.055
			l1.341,0.987C19.183,1,21.852,2.852,25.83,4.364c3.89,1.527,7.321,1.556,7.355,1.556l2.216-0.021l0.16,17.763
			c0.038,4.082-2.25,8.643-6.278,12.512c-3.596,3.453-7.939,5.705-11.067,5.732H18.154z M1.01,7.277l0.152,16.764
			c0.077,8.365,10.956,16.865,16.991,16.865v0.5l0.055-0.5c2.886-0.027,6.961-2.168,10.383-5.455
			c3.83-3.68,6.007-7.973,5.972-11.781L34.412,6.908l-1.221,0.011c-0.041,0-3.634-0.02-7.72-1.623
			c-4.098-1.557-6.775-3.418-6.888-3.497l-0.722-0.531L16.971,1.97c-0.033,0.021-0.073,0.047-0.121,0.079
			c-0.778,0.502-3.145,2.031-6.547,3.45c-4.15,1.692-8.039,1.768-8.076,1.768L1.01,7.277z"/>
	</g>
	<g>
		<path fill="#F6B869" d="M3.275,10.07l0.128,13.952c0.062,6.689,10.705,14.301,14.783,14.264
			c4.012-0.037,14.198-7.838,14.137-14.525L32.197,9.808c-1.722-0.176-4.911-0.593-7.788-1.714
			c-3.006-1.182-5.247-2.436-6.464-3.189c-1.203,0.775-3.484,2.133-6.403,3.306C8.557,9.384,4.993,9.863,3.275,10.07L3.275,10.07
			L3.275,10.07L3.275,10.07L3.275,10.07z"/>
	</g>
	<g>
		<path fill="#355260" d="M24.409,8.093c-3.006-1.182-5.247-2.436-6.464-3.189c-1.203,0.775-3.484,2.133-6.403,3.306
			c-2.984,1.174-6.549,1.653-8.267,1.86l0.127,13.862h28.914c0.001-0.059,0.008-0.117,0.007-0.174L32.197,9.806
			C30.476,9.631,27.286,9.213,24.409,8.093z"/>
	</g>
	<g>
		<path fill="#F6B869" d="M18.073,4.981c-0.041-0.025-0.089-0.054-0.128-0.078c-1.203,0.775-3.484,2.133-6.403,3.306
			C8.557,9.383,4.993,9.863,3.275,10.07l0.128,13.95c0.061,6.631,10.515,14.162,14.67,14.258V4.981z"/>
	</g>
	<g>
		<path fill="#355260" d="M3.402,23.932l0.001,0.088c0.061,6.631,10.515,14.162,14.67,14.258V23.932H3.402z"/>
	</g>
</g>
</svg>
