<?xml version="1.0" encoding="utf-8"?>
<!-- Generator: Adobe Illustrator 16.0.0, SVG Export Plug-In . SVG Version: 6.00 Build 0)  -->
<!DOCTYPE svg PUBLIC "-//W3C//DTD SVG 1.1//EN" "http://www.w3.org/Graphics/SVG/1.1/DTD/svg11.dtd">
<svg version="1.1" id="图层_1" xmlns="http://www.w3.org/2000/svg" xmlns:xlink="http://www.w3.org/1999/xlink" x="0px" y="0px"
	 width="39.391px" height="35.984px" viewBox="0 0 39.391 35.984" enable-background="new 0 0 39.391 35.984" xml:space="preserve">
<path fill="#3A86C8" d="M19.456,0.402c-2.219,1.878-6.527,5.375-8.694,6.81c-0.892,0.591-1.761,0.95-3.841,0.95H2.019
	C1.087,8.162,0,8.522,0,10.138v15.73c0,2.003,1.334,1.989,1.973,1.989h4.948c2.08,0,2.59,0.156,3.781,0.919
	c2.378,1.524,6.701,5.173,8.935,6.929c0.748,0.588,2.028,0.234,2.028-0.952V1.393C21.665-0.334,20.15-0.185,19.456,0.402
	L19.456,0.402z M31.649,3.229l-1.122,2.964c4.135,3.402,5.908,8.368,5.908,11.817c0,3.2-1.693,8.028-5.908,11.817l1.122,2.965
	c4.681-3.298,7.741-8.683,7.741-14.782S36.33,6.526,31.649,3.229L31.649,3.229z M26.609,10.089l-1.005,2.997
	c2.257,1.132,2.953,2.92,2.953,4.924c0,1.877-0.696,3.792-2.953,4.924l1.005,2.997c2.904-1.456,4.902-4.452,4.902-7.921
	C31.512,14.54,29.514,11.544,26.609,10.089L26.609,10.089z M26.609,10.089"/>
</svg>
